<svg
    xmlns="http://www.w3.org/2000/svg"
    xmlns:xlink="http://www.w3.org/1999/xlink"
>
    <symbol id="plus-circle" viewBox="0 0 24 24">
        <path
            d="m12 0a12 12 0 1 0 12 12 12.013 12.013 0 0 0 -12-12zm0 22a10 10 0 1 1 10-10 10.011 10.011 0 0 1 -10 10zm5-10a1 1 0 0 1 -1 1h-3v3a1 1 0 0 1 -2 0v-3h-3a1 1 0 0 1 0-2h3v-3a1 1 0 0 1 2 0v3h3a1 1 0 0 1 1 1z"
        />
    </symbol>

    <symbol id="chevron-left" viewBox="0 0 24 24">
        <path
            d="M17.17,24a1,1,0,0,1-.71-.29L8.29,15.54a5,5,0,0,1,0-7.08L16.46.29a1,1,0,1,1,1.42,1.42L9.71,9.88a3,3,0,0,0,0,4.24l8.17,8.17a1,1,0,0,1,0,1.42A1,1,0,0,1,17.17,24Z"
        />
    </symbol>

    <symbol id="chevron-right" viewBox="0 0 24 24">
        <path
            d="M7,24a1,1,0,0,1-.71-.29,1,1,0,0,1,0-1.42l8.17-8.17a3,3,0,0,0,0-4.24L6.29,1.71A1,1,0,0,1,7.71.29l8.17,8.17a5,5,0,0,1,0,7.08L7.71,23.71A1,1,0,0,1,7,24Z"
        />
    </symbol>

    <symbol id="calendar" viewBox="0 0 24 24">
        <path
            d="M19,2H18V1a1,1,0,0,0-2,0V2H8V1A1,1,0,0,0,6,1V2H5A5.006,5.006,0,0,0,0,7V19a5.006,5.006,0,0,0,5,5H19a5.006,5.006,0,0,0,5-5V7A5.006,5.006,0,0,0,19,2ZM2,7A3,3,0,0,1,5,4H19a3,3,0,0,1,3,3V8H2ZM19,22H5a3,3,0,0,1-3-3V10H22v9A3,3,0,0,1,19,22Z"
        />
        <circle cx="12" cy="15" r="1.5" />
        <circle cx="7" cy="15" r="1.5" />
        <circle cx="17" cy="15" r="1.5" />
    </symbol>

    <symbol id="check" viewBox="0 0 507.506 507.506">
        <path
            d="M163.865,436.934c-14.406,0.006-28.222-5.72-38.4-15.915L9.369,304.966c-12.492-12.496-12.492-32.752,0-45.248l0,0   c12.496-12.492,32.752-12.492,45.248,0l109.248,109.248L452.889,79.942c12.496-12.492,32.752-12.492,45.248,0l0,0   c12.492,12.496,12.492,32.752,0,45.248L202.265,421.019C192.087,431.214,178.271,436.94,163.865,436.934z"
        />
    </symbol>

    <symbol id="heart" viewBox="0 0 24 24">
        <path
            d="M17.5,1.917a6.4,6.4,0,0,0-5.5,3.3,6.4,6.4,0,0,0-5.5-3.3A6.8,6.8,0,0,0,0,8.967c0,4.547,4.786,9.513,8.8,12.88a4.974,4.974,0,0,0,6.4,0C19.214,18.48,24,13.514,24,8.967A6.8,6.8,0,0,0,17.5,1.917Zm-3.585,18.4a2.973,2.973,0,0,1-3.83,0C4.947,16.006,2,11.87,2,8.967a4.8,4.8,0,0,1,4.5-5.05A4.8,4.8,0,0,1,11,8.967a1,1,0,0,0,2,0,4.8,4.8,0,0,1,4.5-5.05A4.8,4.8,0,0,1,22,8.967C22,11.87,19.053,16.006,13.915,20.313Z"
        />
    </symbol>

    <symbol id="home" viewBox="0 0 24 24">
        <path
            d="M23.121,9.069,15.536,1.483a5.008,5.008,0,0,0-7.072,0L.879,9.069A2.978,2.978,0,0,0,0,11.19v9.817a3,3,0,0,0,3,3H21a3,3,0,0,0,3-3V11.19A2.978,2.978,0,0,0,23.121,9.069ZM15,22.007H9V18.073a3,3,0,0,1,6,0Zm7-1a1,1,0,0,1-1,1H17V18.073a5,5,0,0,0-10,0v3.934H3a1,1,0,0,1-1-1V11.19a1.008,1.008,0,0,1,.293-.707L9.878,2.9a3.008,3.008,0,0,1,4.244,0l7.585,7.586A1.008,1.008,0,0,1,22,11.19Z"
        />
    </symbol>

    <symbol id="list" viewBox="0 0 24 24">
        <path
            d="m19,1H5C2.243,1,0,3.243,0,6v12c0,2.757,2.243,5,5,5h14c2.757,0,5-2.243,5-5V6c0-2.757-2.243-5-5-5Zm3,17c0,1.654-1.346,3-3,3H5c-1.654,0-3-1.346-3-3V6c0-1.654,1.346-3,3-3h14c1.654,0,3,1.346,3,3v12Zm-3-11c0,.552-.448,1-1,1h-7c-.552,0-1-.448-1-1s.448-1,1-1h7c.552,0,1,.448,1,1Zm-11,0c0,.828-.672,1.5-1.5,1.5s-1.5-.672-1.5-1.5.672-1.5,1.5-1.5,1.5.672,1.5,1.5Zm11,5c0,.552-.448,1-1,1h-7c-.552,0-1-.448-1-1s.448-1,1-1h7c.552,0,1,.448,1,1Zm-11,0c0,.828-.672,1.5-1.5,1.5s-1.5-.672-1.5-1.5.672-1.5,1.5-1.5,1.5.672,1.5,1.5Zm11,5c0,.552-.448,1-1,1h-7c-.552,0-1-.448-1-1s.448-1,1-1h7c.552,0,1,.448,1,1Zm-11,0c0,.828-.672,1.5-1.5,1.5s-1.5-.672-1.5-1.5.672-1.5,1.5-1.5,1.5.672,1.5,1.5Z"
        />
    </symbol>

    <symbol id="plus" viewBox="0 0 512 512">
        <path
            d="M480,224H288V32c0-17.673-14.327-32-32-32s-32,14.327-32,32v192H32c-17.673,0-32,14.327-32,32s14.327,32,32,32h192v192   c0,17.673,14.327,32,32,32s32-14.327,32-32V288h192c17.673,0,32-14.327,32-32S497.673,224,480,224z"
        />
    </symbol>

    <symbol id="user" viewBox="0 0 24 24">
        <path
            d="M12,12A6,6,0,1,0,6,6,6.006,6.006,0,0,0,12,12ZM12,2A4,4,0,1,1,8,6,4,4,0,0,1,12,2Z"
        />
        <path
            d="M12,14a9.01,9.01,0,0,0-9,9,1,1,0,0,0,2,0,7,7,0,0,1,14,0,1,1,0,0,0,2,0A9.01,9.01,0,0,0,12,14Z"
        />
    </symbol>
</svg>